<svg width="4" height="4" viewBox="0 0 4 4" fill="none" xmlns="http://www.w3.org/2000/svg">
<path d="M1.875 4C1.71749 4 1.59729 3.9521 1.51439 3.85629C1.43149 3.76048 1.39004 3.65269 1.39004 3.53293C1.39004 3.40519 1.41491 3.28942 1.46465 3.18563C1.52268 3.07385 1.58071 2.9501 1.63874 2.81437C1.70506 2.67066 1.75065 2.499 1.77552 2.2994C1.78381 2.2515 1.77138 2.22355 1.73822 2.21557C1.71335 2.1996 1.68019 2.20758 1.63874 2.23952C1.39004 2.43912 1.21595 2.62275 1.11647 2.79042C1.02528 2.95808 0.896791 3.08583 0.730992 3.17365C0.623223 3.22954 0.507165 3.2495 0.382816 3.23353C0.258468 3.20958 0.154844 3.13373 0.0719446 3.00599C-0.00266461 2.87026 -0.0192444 2.74251 0.0222051 2.62275C0.0636546 2.50299 0.138264 2.41517 0.246033 2.35928C0.362091 2.29541 0.482295 2.25948 0.606644 2.2515C0.739282 2.24351 0.880211 2.23154 1.02943 2.21557C1.18694 2.1996 1.36103 2.1517 1.55169 2.07186C1.60143 2.05589 1.6263 2.03194 1.6263 2C1.6263 1.96806 1.60143 1.94411 1.55169 1.92814C1.36103 1.84032 1.18694 1.79242 1.02943 1.78443C0.880211 1.76846 0.739282 1.75649 0.606644 1.7485C0.482295 1.74052 0.362091 1.70459 0.246033 1.64072C0.138264 1.57685 0.0636546 1.48503 0.0222051 1.36527C-0.0192444 1.24551 -0.00266461 1.12176 0.0719446 0.994012C0.154844 0.866268 0.258468 0.790419 0.382816 0.766467C0.507165 0.742515 0.623223 0.762475 0.730992 0.826347C0.847051 0.89022 0.942385 0.974052 1.01699 1.07784C1.0916 1.17365 1.1745 1.28144 1.26569 1.4012C1.35688 1.52096 1.48537 1.64471 1.65117 1.77245C1.69262 1.80439 1.72578 1.81238 1.75065 1.79641C1.77552 1.78044 1.78381 1.7485 1.77552 1.7006C1.75065 1.49301 1.70506 1.32136 1.63874 1.18563C1.58071 1.0499 1.52268 0.926148 1.46465 0.814371C1.41491 0.702595 1.39004 0.586827 1.39004 0.467066C1.39004 0.347306 1.43149 0.239521 1.51439 0.143713C1.59729 0.0479043 1.71749 0 1.875 0C2.03251 0 2.15271 0.0479043 2.23561 0.143713C2.31851 0.239521 2.35996 0.347306 2.35996 0.467066C2.35996 0.586827 2.33094 0.702595 2.27292 0.814371C2.22318 0.926148 2.16515 1.0499 2.09883 1.18563C2.0408 1.32136 1.99935 1.49301 1.97448 1.7006C1.96619 1.7485 1.97448 1.78044 1.99935 1.79641C2.03251 1.81238 2.06567 1.80439 2.09883 1.77245C2.27292 1.64471 2.40141 1.52096 2.48431 1.4012C2.5755 1.28144 2.6584 1.17365 2.73301 1.07784C2.80761 0.974052 2.90295 0.89022 3.01901 0.826347C3.12678 0.762475 3.24284 0.742515 3.36718 0.766467C3.49153 0.790419 3.59516 0.866268 3.67806 0.994012C3.75266 1.12176 3.76924 1.24551 3.72779 1.36527C3.68635 1.48503 3.61174 1.57685 3.50397 1.64072C3.38791 1.70459 3.26356 1.74052 3.13092 1.7485C3.00657 1.75649 2.86564 1.76846 2.70814 1.78443C2.55892 1.79242 2.38897 1.84032 2.19831 1.92814C2.14857 1.94411 2.1237 1.96806 2.1237 2C2.1237 2.03194 2.14857 2.05589 2.19831 2.07186C2.38897 2.1517 2.55892 2.1996 2.70814 2.21557C2.86564 2.23154 3.00657 2.24351 3.13092 2.2515C3.26356 2.25948 3.38791 2.29541 3.50397 2.35928C3.61174 2.41517 3.68635 2.50299 3.72779 2.62275C3.76924 2.74251 3.75266 2.87026 3.67806 3.00599C3.59516 3.13373 3.49153 3.20958 3.36718 3.23353C3.24284 3.2495 3.12678 3.22954 3.01901 3.17365C2.8615 3.08583 2.73301 2.95808 2.63353 2.79042C2.53405 2.62275 2.35996 2.43912 2.11126 2.23952C2.0781 2.20758 2.04494 2.1996 2.01178 2.21557C1.97862 2.22355 1.96619 2.2515 1.97448 2.2994C1.99935 2.499 2.0408 2.67066 2.09883 2.81437C2.16515 2.9501 2.22318 3.07385 2.27292 3.18563C2.33094 3.28942 2.35996 3.40519 2.35996 3.53293C2.35996 3.65269 2.31851 3.76048 2.23561 3.85629C2.15271 3.9521 2.03251 4 1.875 4Z" fill="white"/>
</svg>
